<svg width="21" height="18" viewBox="0 0 21 18" fill="none" xmlns="http://www.w3.org/2000/svg">
<path d="M6.62529 17.125C14.1706 17.125 18.2987 10.8723 18.2987 5.45155C18.2987 5.27577 18.2948 5.09608 18.287 4.9203C19.0901 4.33955 19.7831 3.62021 20.3335 2.79608C19.5856 3.12883 18.7915 3.34615 17.9784 3.44061C18.8346 2.92742 19.4756 2.12123 19.7827 1.17147C18.9773 1.6488 18.0965 1.98551 17.178 2.16718C16.5592 1.50963 15.741 1.07426 14.8499 0.928376C13.9588 0.782488 13.0445 0.934209 12.2483 1.36008C11.4521 1.78595 10.8183 2.46225 10.445 3.28443C10.0717 4.1066 9.97969 5.02885 10.1831 5.90858C8.55224 5.82674 6.95678 5.40309 5.50015 4.66508C4.04352 3.92708 2.75824 2.8912 1.72764 1.6246C1.20383 2.5277 1.04354 3.59637 1.27936 4.61341C1.51517 5.63045 2.12938 6.51954 2.99717 7.09999C2.34569 7.0793 1.70848 6.9039 1.13818 6.58827V6.63905C1.1376 7.58679 1.46524 8.50549 2.06542 9.23897C2.6656 9.97246 3.50127 10.4755 4.43037 10.6625C3.82688 10.8276 3.19348 10.8517 2.5792 10.7328C2.84138 11.5479 3.35147 12.2607 4.03831 12.7719C4.72514 13.2831 5.55443 13.5672 6.41045 13.5844C4.95718 14.7259 3.16197 15.3451 1.31396 15.3422C0.986235 15.3417 0.658829 15.3216 0.333496 15.282C2.21088 16.4865 4.39477 17.1262 6.62529 17.125Z" fill="white"/>
</svg>
